<svg xmlns="http://www.w3.org/2000/svg" viewBox="0 0 1200 760" role="img" aria-label="No Fuss premium skin preview">
  <defs>
    <linearGradient id="bg" x1="0" y1="0" x2="1" y2="1">
      <stop offset="0" stop-color="#0D0D0D"/>
      <stop offset="0.48" stop-color="#141414"/>
      <stop offset="1" stop-color="#080808"/>
    </linearGradient>
    <radialGradient id="lightA" cx="20%" cy="8%" r="65%">
      <stop offset="0" stop-color="#4DA3FF" stop-opacity="0.24"/>
      <stop offset="0.42" stop-color="#4DA3FF" stop-opacity="0.08"/>
      <stop offset="1" stop-color="#4DA3FF" stop-opacity="0"/>
    </radialGradient>
    <radialGradient id="lightB" cx="86%" cy="18%" r="58%">
      <stop offset="0" stop-color="#F5F5F5" stop-opacity="0.12"/>
      <stop offset="0.48" stop-color="#6CB8FF" stop-opacity="0.06"/>
      <stop offset="1" stop-color="#6CB8FF" stop-opacity="0"/>
    </radialGradient>
    <linearGradient id="card" x1="0" y1="0" x2="1" y2="1">
      <stop offset="0" stop-color="#202020" stop-opacity="0.95"/>
      <stop offset="1" stop-color="#141414" stop-opacity="0.92"/>
    </linearGradient>
    <linearGradient id="blue" x1="0" y1="0" x2="1" y2="0">
      <stop offset="0" stop-color="#4DA3FF"/>
      <stop offset="1" stop-color="#6CB8FF"/>
    </linearGradient>
    <filter id="softShadow" x="-20%" y="-20%" width="140%" height="150%">
      <feDropShadow dx="0" dy="28" stdDeviation="28" flood-color="#000000" flood-opacity="0.45"/>
    </filter>
  </defs>
  <rect width="1200" height="760" fill="url(#bg)"/>
  <rect width="1200" height="760" fill="url(#lightA)"/>
  <rect width="1200" height="760" fill="url(#lightB)"/>
  <rect x="74" y="72" width="1052" height="616" rx="42" fill="#101010" stroke="#2A2A2A" stroke-width="2" filter="url(#softShadow)"/>
  <rect x="118" y="116" width="964" height="128" rx="28" fill="url(#card)" stroke="#2A2A2A"/>
  <rect x="150" y="148" width="76" height="76" rx="22" fill="#161616" stroke="#2A2A2A"/>
  <path d="M188 171c15 14 24 29 20 45-9 7-28 7-40 0-3-16 6-31 20-45Z" fill="url(#blue)" opacity="0.9"/>
  <circle cx="188" cy="193" r="14" fill="#F5F5F5" opacity="0.92"/>
  <rect x="256" y="148" width="260" height="18" rx="9" fill="#F5F5F5" opacity="0.92"/>
  <rect x="256" y="184" width="390" height="14" rx="7" fill="#B0B0B0" opacity="0.56"/>
  <rect x="876" y="154" width="150" height="48" rx="24" fill="#161616" stroke="#2A2A2A"/>
  <circle cx="913" cy="178" r="10" fill="#4DA3FF"/>
  <rect x="934" y="170" width="62" height="14" rx="7" fill="#F5F5F5" opacity="0.7"/>
  <rect x="118" y="282" width="456" height="206" rx="28" fill="url(#card)" stroke="#2A2A2A"/>
  <rect x="156" y="326" width="148" height="18" rx="9" fill="#F5F5F5" opacity="0.88"/>
  <rect x="156" y="364" width="354" height="12" rx="6" fill="#B0B0B0" opacity="0.46"/>
  <rect x="156" y="412" width="366" height="18" rx="9" fill="#2A2A2A"/>
  <rect x="156" y="412" width="142" height="18" rx="9" fill="url(#blue)"/>
  <rect x="626" y="282" width="456" height="206" rx="28" fill="url(#card)" stroke="#2A2A2A"/>
  <rect x="666" y="326" width="112" height="18" rx="9" fill="#F5F5F5" opacity="0.88"/>
  <rect x="666" y="366" width="332" height="12" rx="6" fill="#B0B0B0" opacity="0.42"/>
  <circle cx="702" cy="428" r="24" fill="#4DA3FF" opacity="0.94"/>
  <circle cx="786" cy="428" r="24" fill="#8BE28B" opacity="0.92"/>
  <circle cx="870" cy="428" r="24" fill="#FFB84D" opacity="0.94"/>
  <circle cx="954" cy="428" r="24" fill="#59B8FF" opacity="0.9"/>
  <rect x="118" y="526" width="964" height="92" rx="30" fill="#141414" stroke="#2A2A2A"/>
  <rect x="154" y="552" width="136" height="40" rx="20" fill="#202020" stroke="#2A2A2A"/>
  <rect x="184" y="565" width="76" height="14" rx="7" fill="#6CB8FF"/>
  <rect x="370" y="552" width="136" height="40" rx="20" fill="#181818"/>
  <rect x="586" y="552" width="136" height="40" rx="20" fill="#181818"/>
  <rect x="802" y="552" width="136" height="40" rx="20" fill="#181818"/>
</svg>
